<?xml version="1.0" encoding="utf-8"?>
<!-- Generator: Adobe Illustrator 22.0.1, SVG Export Plug-In . SVG Version: 6.00 Build 0)  -->
<svg version="1.1" id="Ebene_1" xmlns="http://www.w3.org/2000/svg" xmlns:xlink="http://www.w3.org/1999/xlink" x="0px" y="0px"
	 viewBox="0 0 574.9 574.9" style="enable-background:new 0 0 574.9 574.9;" xml:space="preserve">
<style type="text/css">
	.st0{fill:#2880BC;stroke:#FFFFFF;stroke-width:4;stroke-miterlimit:10;}
	.st1{fill:#FFFFFF;}
</style>
<circle id="XMLID_2_" class="st0" cx="287.4" cy="287.5" r="285.5"/>
<g id="XMLID_1_">
	<path class="st1" d="M363.1,375.2c8.4,8.9,16.9,18.1,25.6,27.6c8.6,9.6,17.4,19.1,26.3,28.7c8.9,9.6,17.5,18.9,25.9,28
		c8.4,9.1,16.1,17.4,23.1,24.9c-2.3,6.1-7.1,11.3-14.3,15.8c-7.2,4.4-18.6,6.6-34,6.6c-9.3,0-18.3-2-26.9-6c-8.6-4-17-9.3-25.2-16.1
		c-8.2-6.8-16-14.3-23.4-22.8c-7.5-8.4-14.7-17-21.7-25.9c-4.2-5.6-9.7-12.3-16.5-19.9c-6.8-7.7-13.9-16-21.3-24.9
		c-7.5-8.9-15.2-17.7-23.1-26.6c-7.9-8.9-15.2-17.3-21.7-25.2v167.3h-24.5c-8.4,0-16.1-0.7-23.1-2.1c-7-1.4-13.2-4.2-18.5-8.4
		c-5.4-4.2-9.5-9.9-12.3-17.1c-2.8-7.2-4.2-16.5-4.2-27.7V56h24.5c8.4,0,16.1,0.7,23.1,2.1c7,1.4,13.2,4.2,18.6,8.4
		c5.4,4.2,9.4,9.9,12.3,17.1c2.8,7.2,4.2,16.4,4.2,27.6v170.8c7.9-7,16.8-14.7,26.6-23.1c9.8-8.4,19.4-16.6,28.7-24.5
		c9.3-7.9,17.7-15.2,25.2-21.7c7.5-6.5,13.1-11.4,16.8-14.7c18.2-16.3,35-26.6,50.4-30.8s28.7-5.8,39.9-4.9
		c13.1,1.4,25,5.4,35.7,11.9L305,312.2C324.6,333.7,344,354.7,363.1,375.2z"/>
</g>
<g>
</g>
<g>
</g>
<g>
</g>
<g>
</g>
<g>
</g>
<g>
</g>
</svg>
